<?xml version="1.0" encoding="utf-8"?>
<!-- Generator: Adobe Illustrator 23.0.3, SVG Export Plug-In . SVG Version: 6.00 Build 0)  -->
<svg version="1.1" id="Icons" xmlns="http://www.w3.org/2000/svg" xmlns:xlink="http://www.w3.org/1999/xlink" x="0px" y="0px"
	 viewBox="0 0 32 32" style="enable-background:new 0 0 32 32;" xml:space="preserve">
<style type="text/css">
	.st0{fill:none;stroke:#000000;stroke-width:2;stroke-linecap:round;stroke-linejoin:round;stroke-miterlimit:10;}
</style>
<path class="st0" d="M25,7c0-1.7,0.9-3,2-3s2,1.3,2,3H25v18"/>
<path class="st0" d="M11,4C9.9,4,9,5.3,9,7"/>
<line class="st0" x1="27" y1="4" x2="11" y2="4"/>
<path class="st0" d="M23,22c-1.1,0-2,1.3-2,3s0.9,3,2,3s2-1.3,2-3"/>
<path class="st0" d="M7,22c-1.1,0-2,1.3-2,3s0.9,3,2,3"/>
<line class="st0" x1="7" y1="28" x2="23" y2="28"/>
<line class="st0" x1="23" y1="22" x2="7" y2="22"/>
<line class="st0" x1="9" y1="22" x2="9" y2="7"/>
<line class="st0" x1="12" y1="11" x2="18" y2="11"/>
<line class="st0" x1="12" y1="14" x2="15" y2="14"/>
</svg>
