<?xml version="1.0"?>
<svg xmlns="http://www.w3.org/2000/svg" xmlns:xlink="http://www.w3.org/1999/xlink" xmlns:svgjs="http://svgjs.com/svgjs" version="1.1" width="512" height="512" x="0" y="0" viewBox="0 0 128 128" style="enable-background:new 0 0 512 512" xml:space="preserve" class=""><g><g xmlns="http://www.w3.org/2000/svg"><g><circle cx="64" cy="64" fill="#ea3883" r="45" data-original="#ea3883" style="" class=""/><path d="m69.657 64 14.274-14.273a4 4 0 0 0 -5.657-5.658l-14.274 14.274-14.274-14.274a4 4 0 1 0 -5.657 5.658l14.274 14.273-14.274 14.273a4 4 0 0 0 5.657 5.658l14.274-14.274 14.274 14.274a4 4 0 1 0 5.657-5.658z" fill="#fffcee" data-original="#fffcee" style="" class=""/></g><g fill="#01014c"><path d="m64 17.25a46.75 46.75 0 1 0 31.911 80.916 1.75 1.75 0 0 0 -2.389-2.558 43.121 43.121 0 1 1 10.72-15.728 1.75 1.75 0 0 0 3.256 1.285 46.778 46.778 0 0 0 -43.498-63.915z" fill="#01014c" data-original="#01014c" style="" class=""/><path d="m102.7 87.031a1.751 1.751 0 0 0 -2.421.517l-.329.5a1.75 1.75 0 1 0 2.91 1.952c.122-.182.243-.363.361-.545a1.752 1.752 0 0 0 -.521-2.424z" fill="#01014c" data-original="#01014c" style="" class=""/></g></g><path xmlns="http://www.w3.org/2000/svg" d="m86.853 46.9a5.75 5.75 0 0 0 -9.816-4.066l-13.037 13.035-13.037-13.037a5.75 5.75 0 1 0 -8.131 8.132l13.036 13.036-13.036 13.036a5.75 5.75 0 1 0 8.131 8.132l13.037-13.037 13.037 13.037a5.75 5.75 0 1 0 8.131-8.132l-13.036-13.036 13.036-13.036a5.713 5.713 0 0 0 1.685-4.064zm-4.16 1.591-14.273 14.272a1.748 1.748 0 0 0 0 2.474l14.273 14.274a2.248 2.248 0 0 1 0 3.183 2.3 2.3 0 0 1 -3.18 0l-14.276-14.275a1.75 1.75 0 0 0 -2.474 0l-14.276 14.275a2.3 2.3 0 0 1 -3.18 0 2.248 2.248 0 0 1 0-3.182l14.273-14.275a1.748 1.748 0 0 0 0-2.474l-14.273-14.274a2.248 2.248 0 0 1 0-3.183 2.3 2.3 0 0 1 3.18 0l14.276 14.275a1.75 1.75 0 0 0 2.474 0l14.276-14.275a2.3 2.3 0 0 1 3.18 0 2.248 2.248 0 0 1 0 3.182z" fill="#01014c" data-original="#01014c" style="" class=""/></g></svg>
